<?xml version="1.0" encoding="UTF-8" standalone="no"?>
<svg
   xmlns:dc="http://purl.org/dc/elements/1.1/"
   xmlns:cc="http://creativecommons.org/ns#"
   xmlns:rdf="http://www.w3.org/1999/02/22-rdf-syntax-ns#"
   xmlns:svg="http://www.w3.org/2000/svg"
   xmlns="http://www.w3.org/2000/svg"
   xmlns:sodipodi="http://sodipodi.sourceforge.net/DTD/sodipodi-0.dtd"
   xmlns:inkscape="http://www.inkscape.org/namespaces/inkscape"
   sodipodi:docname="mabuhay.svg"
   inkscape:version="1.0.1 (3bc2e813f5, 2020-09-07)"
   id="svg8"
   version="1.1"
   viewBox="0 0 36.896801 7.8658877"
   height="7.8658876mm"
   width="36.896801mm">
  <defs
     id="defs2">
    <rect
       id="rect841"
       height="57.356918"
       width="142.10863"
       y="-3.9361522"
       x="-160.0611" />
    <rect
       id="rect835"
       height="209.76961"
       width="215.37038"
       y="-57.122921"
       x="-144.16953" />
    <rect
       x="-144.16953"
       y="-57.122921"
       width="215.37038"
       height="209.76961"
       id="rect849" />
  </defs>
  <sodipodi:namedview
     inkscape:window-maximized="0"
     inkscape:window-y="34"
     inkscape:window-x="468"
     inkscape:window-height="1009"
     inkscape:window-width="1452"
     fit-margin-bottom="0"
     fit-margin-right="0"
     fit-margin-left="0"
     fit-margin-top="0"
     showgrid="false"
     inkscape:document-rotation="0"
     inkscape:current-layer="layer1"
     inkscape:document-units="mm"
     inkscape:cy="60.446688"
     inkscape:cx="72.685632"
     inkscape:zoom="2.8"
     inkscape:pageshadow="2"
     inkscape:pageopacity="0.0"
     borderopacity="1.0"
     bordercolor="#666666"
     pagecolor="#ffffff"
     id="base" />
  <metadata
     id="metadata5">
    <rdf:RDF>
      <cc:Work
         rdf:about="">
        <dc:format>image/svg+xml</dc:format>
        <dc:type
           rdf:resource="http://purl.org/dc/dcmitype/StillImage" />
        <dc:title />
      </cc:Work>
    </rdf:RDF>
  </metadata>
  <g
     transform="translate(143.70973,55.478564)"
     id="layer1"
     inkscape:groupmode="layer"
     inkscape:label="Layer 1">
    <g
       style="font-style:normal;font-weight:normal;font-size:10.5833px;line-height:1.25;font-family:sans-serif;white-space:pre;shape-inside:url(#rect835);fill:#525252;fill-opacity:1;stroke:none"
       id="text833"
       transform="matrix(0.99559855,0,0,0.99559855,-0.6324991,-2.5517455)"
       aria-label="ᜋᜊᜓᜑᜌ᜔">
      <path
         id="path851"
         d="m -135.48241,-51.531895 q 0,0.368115 -0.18866,0.616592 -0.20707,0.276086 -0.56598,0.271485 0.23928,-0.299094 0.23928,-0.699418 0,-0.133442 -0.0368,-0.326702 -0.16105,-0.837461 -0.75923,-0.83286 -0.70402,0.0046 -1.30221,1.352822 -1.04913,2.360536 -1.13655,2.498579 -0.84207,1.343619 -2.12587,1.343619 -0.0782,0 -0.23467,0.0046 -0.15185,0.0046 -0.23007,0.0046 -1.55989,0 -1.55989,-1.385032 0,-0.280688 0.26689,-0.681013 0.46014,-0.694816 0.49235,-0.754635 0.26688,-0.510759 0.26688,-1.030721 0,-0.616592 -0.42333,-0.892679 -0.30829,-0.202463 -0.92949,-0.253078 0.3083,-0.211666 0.635,-0.211666 0.12424,0 0.25308,0.03221 0.71322,0.174854 0.93869,0.561375 0.10583,0.179456 0.13344,0.630396 l 3.17039,-0.19326 q 0.44174,-0.860468 0.75004,-1.173366 0.45094,-0.455542 1.12735,-0.45094 0.60278,0.0046 0.93409,0.506157 0.28529,0.427934 0.28529,1.062932 z m -3.31764,0.634998 -2.97252,0.19326 q 0,0.16105 -0.50616,1.012316 -0.50616,0.846664 -0.50616,1.044525 0,0.515361 0.46014,0.681013 0.28069,0.101231 0.98931,0.101231 0.92029,0 1.82217,-1.518473 0.37272,-0.630397 0.71322,-1.513872 z"
         style="fill:#525252;fill-opacity:1" />
      <path
         id="path853"
         d="m -129.73983,-52.903123 q 2.14427,0.708621 2.39275,2.908107 -0.0552,1.325213 -0.78224,2.006225 -0.72703,0.676411 -2.05224,0.644201 -1.28841,-0.331303 -1.50928,-1.362024 -0.55677,0.12884 -1.00311,0.12884 -0.80525,0 -1.24239,-0.423332 -0.55677,-0.538368 -0.62579,-1.214779 0.0736,-1.951008 1.54608,-2.576803 0.86507,-0.368115 1.75315,-0.368115 0.74083,0 1.52307,0.25768 z m -1.55988,3.349845 q 0.16105,1.09054 1.40343,1.582893 1.87739,-0.124239 1.9234,-2.112058 -0.46474,-2.268508 -2.84828,-2.480174 -0.25768,-0.02301 -0.46935,-0.02301 -1.20558,0 -1.90039,0.57518 -0.74544,0.621193 -0.74544,1.803762 0.44174,0.920287 1.42185,0.920287 0.52916,0 1.21478,-0.266883 z"
         style="fill:#525252;fill-opacity:1" />
      <path
         id="path855"
         d="m -130.82578,-47.091511 q 0.26689,0 0.46475,0.207065 0.19786,0.207064 0.19786,0.542969 0,0.101232 -0.023,0.211666 -0.11043,0.579781 -0.79604,0.570578 -0.58439,-0.0046 -0.635,-0.510759 0,-0.147246 0.10123,-0.147246 0.0322,0 0.0828,0.01841 0.21626,0.280688 0.47394,0.257681 0.3129,-0.02761 0.33591,-0.280688 0.005,-0.05062 0.005,-0.09203 0,-0.345108 -0.27149,-0.524564 -0.0874,-0.09663 -0.0874,-0.156449 0,-0.08283 0.15184,-0.09663 z"
         style="fill:#525252;fill-opacity:1" />
      <path
         id="path857"
         d="m -123.5371,-51.048745 q -0.29449,-0.478549 -0.86967,-0.478549 -1.39424,0.142645 -1.41264,1.472459 -0.009,0.694817 0.45094,1.021519 0.40032,0.285289 1.12275,0.276086 1.3068,-0.0138 2.08905,-0.819056 l 1.51387,-1.242387 q 0.6488,-0.533766 1.55068,-0.598186 1.30221,0.207064 1.37123,1.081337 0.005,0.05982 0.005,0.138043 0,1.182568 -1.65651,1.182568 -0.39573,0 -0.88808,-0.06902 0.99851,0.501556 1.68872,0.501556 1.29301,0 1.50467,-1.757748 -0.22547,-1.555285 -2.06144,-1.587495 -1.14115,0.08743 -1.86358,0.681013 l -1.51387,1.242387 q -0.86507,0.713222 -1.73934,0.681012 -0.83747,-0.02761 -0.98471,-0.791446 0.21166,-0.975505 1.23778,-0.975505 0.20707,0 0.45555,0.04141 z"
         style="fill:#525252;fill-opacity:1" />
      <path
         id="path859"
         d="m -107.91525,-48.619187 q -0.26688,0 -0.93869,-0.239275 0.82366,-0.0138 1.17337,-0.271484 0.42793,-0.317499 0.41873,-1.127352 -0.0138,-1.131953 -1.21018,-1.131953 -0.13344,0 -0.24387,0.0092 -0.98011,0.08283 -2.07065,1.127352 -0.53377,0.533766 -1.94181,1.900392 -1.05372,1.007714 -1.928,1.007714 -0.71782,0 -1.12275,-0.552172 -0.36811,-0.492353 -0.36811,-1.233184 0,-0.782244 0.52916,-1.431047 0.36812,-0.45094 1.15956,-0.993909 -0.15644,-0.44634 -0.51536,-0.648803 -0.17485,-0.05522 -0.50615,-0.188659 -0.33131,-0.133441 -0.33131,-0.35431 0,-0.349709 0.38652,-0.349709 0.58439,0 1.16877,0.552172 0.58438,0.552172 0.58438,1.131953 0,0.101232 -0.023,0.197862 -0.86047,0.492353 -1.19177,0.809852 -0.58438,0.561375 -0.58438,1.293003 0,0.404927 0.17485,0.70402 0.20707,0.363513 0.58439,0.363513 0.69481,0 1.78535,-1.072134 1.73014,-1.702531 2.04764,-1.941806 1.20098,-0.906482 2.39735,-0.906482 0.79605,0 1.2976,0.427933 0.53377,0.450941 0.53377,1.233185 0,1.684125 -1.2654,1.684125 z"
         style="fill:#525252;fill-opacity:1" />
      <path
         id="path861"
         d="m -111.02123,-47.096112 h 0.46015 v 0.690215 l 0.91568,0.0046 v 0.455542 h -0.91568 v 0.685614 h -0.46475 v -0.685614 h -0.91568 v -0.455542 h 0.92028 z"
         style="fill:#525252;fill-opacity:1" />
    </g>
  </g>
</svg>
