<?xml version="1.0" encoding="UTF-8" standalone="no"?>
<!-- Created with Inkscape (http://www.inkscape.org/) -->
<svg xmlns:dc="http://purl.org/dc/elements/1.1/" xmlns:cc="http://creativecommons.org/ns#" xmlns:rdf="http://www.w3.org/1999/02/22-rdf-syntax-ns#" xmlns:svg="http://www.w3.org/2000/svg" xmlns="http://www.w3.org/2000/svg" xmlns:sodipodi="http://sodipodi.sourceforge.net/DTD/sodipodi-0.dtd" xmlns:inkscape="http://www.inkscape.org/namespaces/inkscape" width="378.75391mm" height="58.755215mm" viewBox="0 0 378.75391 58.755215" version="1.1" id="svg1696" inkscape:version="0.92.4 (5da689c313, 2019-01-14)" sodipodi:docname="logos.svg">
  <defs id="defs1690"/>
  <sodipodi:namedview id="base" pagecolor="#ffffff" bordercolor="#666666" borderopacity="1.0" inkscape:pageopacity="0.0" inkscape:pageshadow="2" inkscape:zoom="0.49497475" inkscape:cx="732.70846" inkscape:cy="-125.28822" inkscape:document-units="mm" inkscape:current-layer="layer1" showgrid="false" fit-margin-top="0" fit-margin-left="0" fit-margin-right="0" fit-margin-bottom="0" inkscape:window-width="1920" inkscape:window-height="1012" inkscape:window-x="0" inkscape:window-y="32" inkscape:window-maximized="1"/>
  <metadata id="metadata1693">
    <rdf:RDF>
      <cc:Work rdf:about="">
        <dc:format>image/svg+xml</dc:format>
        <dc:type rdf:resource="http://purl.org/dc/dcmitype/StillImage"/>
        <dc:title/>
      </cc:Work>
    </rdf:RDF>
  </metadata>
  <g inkscape:label="Layer 1" inkscape:groupmode="layer" id="layer1" transform="translate(559.25262,-49.642769)">
    <g transform="matrix(0.35277777,0,0,-0.35277777,-363.60008,169.33149)" inkscape:label="ink_ext_XXXXXX" id="g2249">
      <g transform="scale(0.1)" id="g2251">
        <path inkscape:connector-curvature="0" id="path2253" style="fill:#f03b22;fill-opacity:1;fill-rule:nonzero;stroke:none" d="M 2179.5,2626 2558,2844.5 2936.5,2626 v -197.55 l -174.31,55.87 v 40.91 L 2558,2642.97 2408.59,2556.16 2936.5,2387.55 V 2190 L 2558,1971.5 2179.5,2190 v 197.55 l 175.31,-54.88 v -40.9 l 204.18,-117.73 152.4,87.79 -531.89,167.62 z M 3391,2440.51 h -271 v 448.99 c 0,43 -35,78 -78,78 h -449 v 271 c 0,21 -15,38 -34,38 -19,0 -34,-17 -34,-38 v -271 h -450 c -43,0 -78,-35 -78,-78 v -450 h -269 c -21,0 -38,-15 -38,-33.99 0,-19.01 17,-34.01 38,-34.01 h 269 v -450 c 0,-43 35,-78 78,-78 h 968 c 43,0 78,35 78,78 v 450 h 271 c 21,0 38,15 38,34.01 0,18.99 -18,35 -39,35"/>
      </g>
    </g>
    <g transform="matrix(0.35277777,0,0,-0.35277777,-296.68609,169.33139)" inkscape:label="ink_ext_XXXXXX" id="g2266">
      <g transform="scale(0.1)" id="g2268">
        <path inkscape:connector-curvature="0" id="path2270" style="fill:#e21f2e;fill-opacity:1;fill-rule:nonzero;stroke:none" d="m 2452.97,3263.61 c 49.45,11.68 99,-18.94 110.67,-68.39 11.68,-49.45 -18.94,-99 -68.39,-110.67 -49.45,-11.68 -99,18.95 -110.67,68.39 -11.68,49.45 18.94,99 68.39,110.67"/>
        <path inkscape:connector-curvature="0" id="path2272" style="fill:#e21f2e;fill-opacity:1;fill-rule:nonzero;stroke:none" d="m 3148.5,2143.9 c 80.08,0 145,-64.92 145,-145 0,-80.08 -64.92,-145 -145,-145 -80.08,0 -145,64.92 -145,145 0,80.08 64.92,145 145,145"/>
        <path inkscape:connector-curvature="0" id="path2274" style="fill:#e21f2e;fill-opacity:1;fill-rule:nonzero;stroke:none" d="m 1890.5,2062.9 c 35.35,0 64,-28.65 64,-64 0,-35.35 -28.65,-64 -64,-64 -35.35,0 -64,28.65 -64,64 0,35.35 28.65,64 64,64"/>
        <path inkscape:connector-curvature="0" id="path2276" style="fill:#e21f2e;fill-opacity:1;fill-rule:nonzero;stroke:none" d="m 2094,2641.4 378.5,218.5 378.5,-218.5 v -197.55 l -174.31,55.88 v 40.9 L 2472.5,2658.36 2323.09,2571.56 2851,2402.95 V 2205.4 L 2472.5,1986.89 2094,2205.4 v 197.55 l 175.3,-54.88 v -40.9 l 204.2,-117.74 152.39,87.81 -531.89,167.61 z m 379.5,343.5 c -310,0 -561,-251 -561,-561 0,-310 251,-561 561,-561 310,0 561,251 561,561 0,310 -251,561 -561,561"/>
      </g>
    </g>
    <g id="g2327" transform="matrix(0.29138804,0,0,0.29138804,-292.23052,44.189879)">
      <path style="clip-rule:evenodd;fill:#db933d;fill-rule:evenodd;stroke-width:3.43158364" inkscape:connector-curvature="0" d="m -151.97525,75.412936 h -80.37455 c -14.46413,1.104969 -12.17183,20.387037 -1.50304,20.232616 9.87953,-0.157853 26.47467,0 38.24843,0 -16.91427,15.963728 -54.68915,40.146098 -71.20536,55.873048 -6.40333,6.0842 -6.00527,23.78774 12.56646,19.6767 7.03475,-3.87426 38.80435,-29.79644 43.15217,-34.21975 2.21337,55.08378 64.17061,80.92704 110.72005,48.60152 24.734847,-17.22999 33.272627,-60.85228 13.911637,-82.34772 -15.253387,-17.072127 -43.073237,-34.140824 -76.345877,-61.881746 -5.2915,-4.344385 -21.1763,-2.134445 -15.80587,10.826646 0,0.0034 14.14842,14.151852 26.63595,23.238686 z m 8.13972,19.364425 c 22.91955,0 41.72805,16.910839 41.72805,37.462599 0,20.70275 -18.8085,37.45917 -41.72805,37.45917 -23.0774,0 -41.72806,-16.75642 -41.72806,-37.45917 0,-20.55176 18.65066,-37.462599 41.72806,-37.462599 z" id="path2288"/>
      <path style="clip-rule:evenodd;fill:#37699f;fill-rule:evenodd;stroke-width:3.43158364" inkscape:connector-curvature="0" d="m -142.37368,106.86683 c 14.2548,0 25.88101,10.95018 25.88101,24.37797 0,13.42779 -11.62621,24.37797 -25.88101,24.37797 -14.25479,0 -25.881,-10.95018 -25.881,-24.37797 0,-13.42779 11.62621,-24.37797 25.881,-24.37797 z" id="path2290"/>
    </g>
    <g id="g2349" transform="matrix(0.25684974,0,0,0.25684974,-559.44628,49.441253)">
      <path style="fill:#53c1de;stroke-width:0.97077066" d="M 168.52734 13.330078 C 157.55061 13.252219 143.48037 20.20519 129.30469 32.541016 A 146.7184 146.7184 0 0 0 123.84375 37.554688 A 133.55183 133.55183 0 0 0 120.20898 34.197266 C 100.40041 16.608843 80.545081 9.1984007 68.623047 16.099609 C 57.191251 22.717353 53.805077 42.36741 58.617188 66.957031 A 146.499 146.499 0 0 0 60.238281 74.222656 C 57.428871 75.02063 54.714981 75.870632 52.119141 76.775391 C 28.896365 84.871618 14.066406 97.560947 14.066406 110.72266 C 14.066406 124.31733 29.986118 137.95362 54.175781 146.2207 A 124.68578 124.68578 0 0 0 60.107422 148.07422 A 143.49253 143.49253 0 0 0 58.384766 155.90625 C 53.796903 180.06873 57.379548 199.25311 68.78125 205.83008 C 80.557669 212.62062 100.32186 205.64182 119.56836 188.81836 C 121.08956 187.4884 122.61752 186.07809 124.14648 184.59961 A 144.00412 144.00412 0 0 0 130.07617 190.00977 C 148.71885 206.05175 167.12949 212.52999 178.52148 205.93555 C 190.28722 199.12462 194.11101 178.51348 189.14648 153.4375 C 188.76788 151.52217 188.32517 149.56624 187.83008 147.57422 C 189.21828 147.16455 190.58117 146.74151 191.91016 146.30078 C 217.057 137.96963 233.41602 124.49886 233.41602 110.72266 C 233.41602 97.51338 218.10866 84.739429 194.41797 76.583984 A 146.93973 146.93973 0 0 0 187.35547 74.359375 A 133.48097 133.48097 0 0 0 188.44727 69.542969 C 193.79233 43.59621 190.29794 22.693323 178.36328 15.8125 C 175.50266 14.162675 172.18625 13.356031 168.52734 13.330078 z M 168.04883 22.679688 C 170.27074 22.647138 172.17306 23.059665 173.68164 23.929688 C 181.02649 28.166131 183.88458 45.249869 179.26953 67.652344 A 123.79753 123.79753 0 0 1 178.2832 72.011719 C 169.1832 69.911942 159.2996 68.349677 148.95312 67.378906 C 142.92561 58.796323 136.68135 50.992904 130.41211 44.238281 A 137.77177 137.77177 0 0 1 135.45703 39.611328 C 148.1089 28.600665 160.11342 22.795936 168.04883 22.679688 z M 79.326172 22.888672 C 87.797998 23.048285 100.62458 29.339246 113.98633 41.203125 C 115.07942 42.173896 116.17746 43.190843 117.27734 44.242188 C 110.90521 51.08515 104.60766 58.874874 98.591797 67.365234 C 88.275417 68.321443 78.39896 69.858953 69.320312 71.916016 A 137.38832 137.38832 0 0 1 67.8125 65.158203 C 63.69018 44.090523 66.42901 28.196789 73.318359 24.208984 C 74.923771 23.279714 76.954061 22.84398 79.326172 22.888672 z M 123.8457 50.939453 C 128.16757 55.62148 132.49611 60.849271 136.75391 66.521484 A 275.93671 275.93671 0 0 0 110.82812 66.515625 C 115.08981 60.895834 119.45588 55.675843 123.8457 50.939453 z M 123.74219 75.583984 C 130.5337 75.583984 137.23032 75.844762 143.75195 76.341797 A 282.20692 282.20692 0 0 1 154.32227 93.214844 A 307.16931 307.16931 0 0 1 163.77734 110.81641 A 282.30594 282.30594 0 0 1 154.35352 128.57031 L 154.35156 128.57031 A 307.22756 307.22756 0 0 1 143.82812 145.55078 C 137.32008 146.01578 130.59583 146.25391 123.74219 146.25391 C 116.9167 146.25391 110.27533 146.04147 103.88086 145.62695 A 265.79507 265.79507 0 0 1 93.160156 128.62305 A 263.40309 263.40309 0 0 1 83.802734 110.94922 A 265.85914 265.85914 0 0 1 93.132812 93.267578 L 93.132812 93.265625 A 263.32349 263.32349 0 0 1 103.76953 76.335938 C 110.29311 75.842786 116.98077 75.583984 123.74219 75.583984 z M 91.738281 77.533203 A 275.49501 275.49501 0 0 0 85.013672 88.585938 A 276.90263 276.90263 0 0 0 78.822266 99.927734 C 76.093429 93.455606 73.758156 87.092244 71.851562 80.947266 C 78.110121 79.546444 84.784651 78.402043 91.738281 77.533203 z M 155.76172 77.550781 C 162.76098 78.434183 169.4653 79.609164 175.76172 81.046875 C 173.87163 87.105455 171.51665 93.441091 168.74219 99.935547 A 326.58667 326.58667 0 0 0 162.43164 88.521484 A 298.00912 298.00912 0 0 0 155.76172 77.550781 z M 62.753906 83.248047 C 65.499246 92.176225 69.100143 101.5114 73.445312 110.95117 C 69.043838 120.53171 65.391673 130.01581 62.621094 139.04883 A 115.4324 115.4324 0 0 1 57.207031 137.35352 C 46.51108 133.69759 37.677744 128.94759 31.623047 123.76367 C 26.182848 119.10397 23.435547 114.47663 23.435547 110.72266 C 23.435547 102.73613 35.344081 92.549507 55.205078 85.625 A 135.20506 135.20506 0 0 1 62.753906 83.248047 z M 184.8457 83.386719 C 187.08915 84.037135 189.26838 84.722088 191.36719 85.445312 C 211.666 92.431949 224.04688 102.76234 224.04688 110.72266 C 224.04688 119.20234 210.67418 130.21187 188.96289 137.40625 C 187.76399 137.8033 186.53353 138.18679 185.2793 138.55859 C 182.50289 129.77021 178.7539 120.42385 174.16992 110.76953 C 178.54519 101.34335 182.14696 92.118801 184.8457 83.386719 z M 168.83008 121.63086 C 171.76181 128.31364 174.23437 134.77789 176.19727 140.92578 C 169.83678 142.37708 162.96953 143.54619 155.73438 144.41406 A 327.67102 327.67102 0 0 0 162.46875 133.25195 A 297.66935 297.66935 0 0 0 168.83008 121.63086 z M 78.832031 121.9668 A 275.20766 275.20766 0 0 0 85.050781 133.31641 A 276.93175 276.93175 0 0 0 91.9375 144.58203 C 84.753797 143.78017 77.979273 142.69402 71.722656 141.33203 C 73.659344 135.07833 76.044949 128.57775 78.832031 121.9668 z M 178.76562 149.95117 C 179.21218 151.75681 179.61044 153.52693 179.95312 155.25781 C 182.14804 166.34596 182.46203 176.37195 181.00781 184.20898 C 179.70116 191.25095 177.07437 195.94384 173.82617 197.82422 C 166.91331 201.82574 152.1295 196.62518 136.1875 182.90625 C 134.35954 181.3336 132.51828 179.65346 130.67188 177.87695 C 136.85277 171.11651 143.03011 163.25848 149.05859 154.53125 C 159.66329 153.59057 169.68018 152.05095 178.76562 149.95117 z M 69.193359 150.37109 C 78.177842 152.35826 88.122014 153.78835 98.751953 154.65039 C 104.82024 163.19026 111.17689 171.04004 117.58203 177.91406 A 115.38871 115.38871 0 0 1 113.40234 181.76172 C 104.8916 189.20171 96.363363 194.47971 88.847656 197.13477 C 82.094005 199.51995 76.714002 199.58745 73.462891 197.71289 C 66.543237 193.72302 63.668913 178.31715 67.591797 157.6543 A 134.45853 134.45853 0 0 1 69.193359 150.37109 z M 136.98242 155.33008 C 132.71103 161.13529 128.39822 166.44324 124.10547 171.16992 C 119.66419 166.37723 115.23493 161.07829 110.9082 155.37695 C 115.10776 155.54198 119.39022 155.625 123.74219 155.625 C 128.21356 155.625 132.6324 155.52423 136.98242 155.33008 z " transform="matrix(1.0301094,0,0,1.0301094,0.75398169,0.78456766)" id="path2331"/>
      <path id="path2335" d="m 128.221,94.665 c 11.144,0 20.177,9.034 20.177,20.177 0,11.144 -9.033,20.178 -20.177,20.178 -11.143,0 -20.177,-9.034 -20.177,-20.178 0,-11.143 9.034,-20.177 20.177,-20.177" inkscape:connector-curvature="0" style="fill:#53c1de"/>
    </g>
    <g id="g2384" transform="matrix(0.02043365,0,0,0.02043365,-487.14855,53.741905)">
      <path id="path2361" d="M 381,1618 0,1237 1237.1,0 H 1999 m 0,1141.5 h -761.9 l -285.4,285.4 381,381" inkscape:connector-curvature="0" style="fill:#42a5f5;fill-opacity:0.8"/>
      <path id="path2363" d="m 951.7,2188.8 285.4,285.4 H 1999 l -666.3,-666.3" inkscape:connector-curvature="0" style="fill:#0d47a1"/>
      <path id="path2365" d="M 571.6,1808.1 952,1427.6 1332.4,1808 952,2188.5 Z" inkscape:connector-curvature="0" style="fill:#42a5f5"/>
      <path id="path2367" d="m 952,2188.5 380.4,-380.4 53.1,53.1 -380.4,380.4 z" inkscape:connector-curvature="0" style="fill:url(#a)"/>
      <path id="path2369" d="M 951.7,2188.8 1517,1993.5 1332.7,1807.8" inkscape:connector-curvature="0" style="fill:url(#b)"/>
    </g>
    <g id="g2430" transform="matrix(0.56232727,0,0,0.56232727,-436.80005,50.217561)">
      <path id="path2407" d="m 90.133,65.7 c 0,0 -0.133,-0.818 -0.211,-0.81 l -14.843,1.43 a 2.412,2.412 0 0 0 -2.181,2.24 l -0.408,5.844 -11.483,0.82 -0.78,-5.297 A 2.433,2.433 0 0 0 57.833,67.86 H 42.167 c -1.19,0 -2.22,0.889 -2.393,2.067 L 38.993,75.223 27.51,74.404 27.102,68.56 A 2.413,2.413 0 0 0 24.921,66.32 L 10.07,64.89 C 9.993,64.883 9.937,65.702 9.86,65.702 l -0.02,3.212 12.577,2.028 0.411,5.896 a 2.431,2.431 0 0 0 2.241,2.245 l 15.815,1.128 a 2.431,2.431 0 0 0 2.568,-2.06 l 0.803,-5.45 h 11.488 l 0.804,5.45 a 2.432,2.432 0 0 0 2.565,2.06 l 15.817,-1.128 a 2.432,2.432 0 0 0 2.24,-2.245 l 0.412,-5.896 12.572,-2.037 z" inkscape:connector-curvature="0" style="fill:#ffffff;stroke-width:0.31999999"/>
      <path id="path2409" d="M 40.764,4.2 A 2.574,2.574 0 0 0 40.098,4.264 C 35.766,5.227 31.41,6.582 27.268,8.666 a 2.773,2.773 0 0 0 -1.525,2.55 c 0.074,2.886 0.326,5.694 0.644,8.529 -1.077,0.645 -2.154,1.232 -3.342,2.185 -0.845,0.65 -1.788,1.473 -2.71,2.236 -2.15,-1.349 -4.32,-2.692 -6.62,-3.85 a 2.773,2.773 0 0 0 -3.279,0.59 C 7.31,24.272 4.338,27.954 1.883,32.13 a 2.773,2.773 0 0 0 0.034,2.863 c 1.623,2.625 3.351,5.08 5.171,7.459 v 29.805 c 0,8.223 5.472,14.496 13.3,18.238 7.826,3.742 18.184,5.452 29.575,5.492 h 0.075 c 11.39,-0.04 21.749,-1.75 29.574,-5.492 7.825,-3.742 13.295,-10.016 13.295,-18.238 l 0.004,-29.031 c 1.848,-2.712 3.382,-5.334 5.173,-8.23 0.54,-0.875 0.553,-1.976 0.034,-2.862 -2.454,-4.177 -5.429,-7.86 -8.555,-11.225 a 2.773,2.773 0 0 0 -3.277,-0.59 c -2.299,1.157 -4.47,2.502 -6.62,3.852 -0.922,-0.764 -1.862,-1.588 -2.71,-2.239 -0.004,0 -0.007,0 -0.01,-0.01 -1.186,-0.95 -2.259,-1.537 -3.332,-2.18 0.317,-2.833 0.57,-5.642 0.644,-8.529 A 2.773,2.773 0 0 0 72.733,8.665 C 68.59,6.58 64.235,5.225 59.9,4.262 a 2.773,2.773 0 0 0 -2.985,1.29 c -1.4,2.353 -2.601,4.855 -3.763,7.325 -1.035,-0.094 -2.086,-0.238 -3.088,-0.25 h -0.127 c -1.004,0.012 -2.056,0.156 -3.092,0.25 C 45.73,10.505 44.568,8.113 43.23,5.842 A 2.773,2.773 0 0 0 40.763,4.196 Z" inkscape:connector-curvature="0" style="fill:#ffffff"/>
      <path id="path2411" d="m 40.699,6.9 c -4.178,0.929 -8.31,2.222 -12.185,4.172 0.089,3.421 0.31,6.7 0.758,10.029 -1.505,0.964 -3.086,1.791 -4.491,2.92 -1.428,1.098 -2.887,2.15 -4.18,3.434 a 80.027,80.027 0 0 0 -8.134,-4.731 c -3.036,3.267 -5.874,6.794 -8.193,10.74 1.744,2.822 3.566,5.468 5.532,7.978 h 0.055 v 24.22 c 0.045,0 0.089,0 0.133,0.01 l 14.848,1.432 a 1.599,1.599 0 0 1 1.441,1.48 l 0.458,6.555 12.952,0.924 0.893,-6.05 a 1.599,1.599 0 0 1 1.581,-1.365 h 15.665 c 0.793,0 1.466,0.581 1.582,1.365 l 0.892,6.05 12.953,-0.924 0.458,-6.555 a 1.6,1.6 0 0 1 1.441,-1.48 L 90,65.672 c 0.044,0 0.088,-0.01 0.132,-0.01 V 63.73 h 0.006 V 41.445 h 0.055 c 1.967,-2.511 3.787,-5.157 5.533,-7.979 -2.318,-3.946 -5.159,-7.473 -8.195,-10.74 a 80.158,80.158 0 0 0 -8.134,4.732 c -1.292,-1.285 -2.748,-2.336 -4.178,-3.435 -1.405,-1.128 -2.989,-1.956 -4.49,-2.92 0.447,-3.33 0.668,-6.607 0.757,-10.029 -3.875,-1.95 -8.007,-3.243 -12.187,-4.171 -1.669,2.804 -3.195,5.841 -4.524,8.81 -1.576,-0.263 -3.16,-0.36 -4.745,-0.38 h -0.061 c -1.588,0.02 -3.17,0.117 -4.747,0.38 -1.328,-2.969 -2.853,-6.006 -4.525,-8.81 z M 9.837,68.866 c 0.006,1.435 0.024,3.007 0.024,3.32 0,14.101 17.888,20.878 40.112,20.956 h 0.055 c 22.224,-0.078 40.106,-6.855 40.106,-20.956 0,-0.319 0.02,-1.884 0.026,-3.32 l -13.346,1.287 -0.46,6.59 a 1.6,1.6 0 0 1 -1.482,1.483 l -15.816,1.128 h -0.115 a 1.599,1.599 0 0 1 -1.58,-1.366 l -0.907,-6.15 H 43.549 l -0.907,6.15 A 1.598,1.598 0 0 1 40.946,79.35 L 25.13,78.222 a 1.599,1.599 0 0 1 -1.48,-1.483 l -0.46,-6.59 z" inkscape:connector-curvature="0" style="fill:#478cbf"/>
      <path id="path2413" d="m 37.9,51.3 a 8.948,8.948 0 0 1 -17.895,0 c 0,-4.94 4.007,-8.944 8.947,-8.944 4.942,0 8.948,4.003 8.948,8.944 M 50,61.1 c -1.59,0 -2.88,-1.172 -2.88,-2.618 v -8.237 c 0,-1.444 1.29,-2.618 2.88,-2.618 1.59,0 2.883,1.174 2.883,2.618 v 8.237 c 0,1.446 -1.292,2.618 -2.883,2.618 m 12.101,-9.8 a 8.947,8.947 0 0 0 8.949,8.949 8.947,8.947 0 0 0 8.946,-8.949 c 0,-4.94 -4.007,-8.944 -8.946,-8.944 -4.943,0 -8.949,4.003 -8.949,8.944" inkscape:connector-curvature="0" style="fill:#ffffff;stroke-width:0.31999999"/>
      <path id="path2415" d="m 29.807,45.9 a 5.9385,5.9385 0 1 0 0,11.877 5.94,5.94 0 0 0 0,-11.877 z m 40.383,0 a 5.938,5.938 0 0 0 -5.936,5.94 5.936,5.936 0 0 0 5.936,5.937 5.939,5.939 0 0 0 0,-11.877 z" inkscape:connector-curvature="0" style="fill:#414042"/>
    </g>
  </g>
</svg>