<?xml version="1.0" encoding="UTF-8" standalone="no"?>
<svg
   xmlns:dc="http://purl.org/dc/elements/1.1/"
   xmlns:cc="http://creativecommons.org/ns#"
   xmlns:rdf="http://www.w3.org/1999/02/22-rdf-syntax-ns#"
   xmlns:svg="http://www.w3.org/2000/svg"
   xmlns="http://www.w3.org/2000/svg"
   xmlns:sodipodi="http://sodipodi.sourceforge.net/DTD/sodipodi-0.dtd"
   xmlns:inkscape="http://www.inkscape.org/namespaces/inkscape"
   width="291.13654"
   height="40.544949"
   viewBox="0 0 77.029878 10.727518"
   version="1.1"
   id="svg1696"
   inkscape:version="1.0 (4035a4fb49, 2020-05-01)"
   sodipodi:docname="tools.svg">
  <defs
     id="defs1690" />
  <sodipodi:namedview
     id="base"
     pagecolor="#ffffff"
     bordercolor="#666666"
     borderopacity="1.0"
     inkscape:pageopacity="0.0"
     inkscape:pageshadow="2"
     inkscape:zoom="1.2305027"
     inkscape:cx="426.69741"
     inkscape:cy="89.233019"
     inkscape:document-units="mm"
     inkscape:current-layer="layer1"
     showgrid="false"
     fit-margin-top="0"
     fit-margin-left="0"
     fit-margin-right="0"
     fit-margin-bottom="0"
     inkscape:window-width="1920"
     inkscape:window-height="1016"
     inkscape:window-x="0"
     inkscape:window-y="27"
     inkscape:window-maximized="1"
     inkscape:document-rotation="0"
     units="px" />
  <metadata
     id="metadata1693">
    <rdf:RDF>
      <cc:Work
         rdf:about="">
        <dc:format>image/svg+xml</dc:format>
        <dc:type
           rdf:resource="http://purl.org/dc/dcmitype/StillImage" />
        <dc:title></dc:title>
      </cc:Work>
    </rdf:RDF>
  </metadata>
  <g
     inkscape:label="Layer 1"
     inkscape:groupmode="layer"
     id="layer1"
     transform="translate(555.53088,-52.577086)">
    <g
       transform="matrix(0.07245893,0,0,-0.07245893,-516.10918,76.557905)"
       inkscape:label="ink_ext_XXXXXX"
       id="g2249">
      <g
         transform="scale(0.1)"
         id="g2251">
        <path
           inkscape:connector-curvature="0"
           id="path2253"
           style="fill:#f03b22;fill-opacity:1;fill-rule:nonzero;stroke:none"
           d="M 2179.5,2626 2558,2844.5 2936.5,2626 v -197.55 l -174.31,55.87 v 40.91 L 2558,2642.97 2408.59,2556.16 2936.5,2387.55 V 2190 L 2558,1971.5 2179.5,2190 v 197.55 l 175.31,-54.88 v -40.9 l 204.18,-117.73 152.4,87.79 -531.89,167.62 z M 3391,2440.51 h -271 v 448.99 c 0,43 -35,78 -78,78 h -449 v 271 c 0,21 -15,38 -34,38 -19,0 -34,-17 -34,-38 v -271 h -450 c -43,0 -78,-35 -78,-78 v -450 h -269 c -21,0 -38,-15 -38,-33.99 0,-19.01 17,-34.01 38,-34.01 h 269 v -450 c 0,-43 35,-78 78,-78 h 968 c 43,0 78,35 78,78 v 450 h 271 c 21,0 38,15 38,34.01 0,18.99 -18,35 -39,35" />
      </g>
    </g>
    <g
       transform="matrix(0.07245893,0,0,-0.07245893,-502.36535,76.557885)"
       inkscape:label="ink_ext_XXXXXX"
       id="g2266">
      <g
         transform="scale(0.1)"
         id="g2268">
        <path
           inkscape:connector-curvature="0"
           id="path2270"
           style="fill:#e21f2e;fill-opacity:1;fill-rule:nonzero;stroke:none"
           d="m 2452.97,3263.61 c 49.45,11.68 99,-18.94 110.67,-68.39 11.68,-49.45 -18.94,-99 -68.39,-110.67 -49.45,-11.68 -99,18.95 -110.67,68.39 -11.68,49.45 18.94,99 68.39,110.67" />
        <path
           inkscape:connector-curvature="0"
           id="path2272"
           style="fill:#e21f2e;fill-opacity:1;fill-rule:nonzero;stroke:none"
           d="m 3148.5,2143.9 c 80.08,0 145,-64.92 145,-145 0,-80.08 -64.92,-145 -145,-145 -80.08,0 -145,64.92 -145,145 0,80.08 64.92,145 145,145" />
        <path
           inkscape:connector-curvature="0"
           id="path2274"
           style="fill:#e21f2e;fill-opacity:1;fill-rule:nonzero;stroke:none"
           d="m 1890.5,2062.9 c 35.35,0 64,-28.65 64,-64 0,-35.35 -28.65,-64 -64,-64 -35.35,0 -64,28.65 -64,64 0,35.35 28.65,64 64,64" />
        <path
           inkscape:connector-curvature="0"
           id="path2276"
           style="fill:#e21f2e;fill-opacity:1;fill-rule:nonzero;stroke:none"
           d="m 2094,2641.4 378.5,218.5 378.5,-218.5 v -197.55 l -174.31,55.88 v 40.9 L 2472.5,2658.36 2323.09,2571.56 2851,2402.95 V 2205.4 L 2472.5,1986.89 2094,2205.4 v 197.55 l 175.3,-54.88 v -40.9 l 204.2,-117.74 152.39,87.81 -531.89,167.61 z m 379.5,343.5 c -310,0 -561,-251 -561,-561 0,-310 251,-561 561,-561 310,0 561,251 561,561 0,310 -251,561 -561,561" />
      </g>
    </g>
    <g
       id="g2327"
       transform="matrix(0.05984977,0,0,0.05984977,-501.4502,50.854392)">
      <path
         style="clip-rule:evenodd;fill:#db933d;fill-rule:evenodd;stroke-width:3.43158"
         inkscape:connector-curvature="0"
         d="m -151.97525,75.412936 h -80.37455 c -14.46413,1.104969 -12.17183,20.387037 -1.50304,20.232616 9.87953,-0.157853 26.47467,0 38.24843,0 -16.91427,15.963728 -54.68915,40.146098 -71.20536,55.873048 -6.40333,6.0842 -6.00527,23.78774 12.56646,19.6767 7.03475,-3.87426 38.80435,-29.79644 43.15217,-34.21975 2.21337,55.08378 64.17061,80.92704 110.72005,48.60152 24.734847,-17.22999 33.272627,-60.85228 13.911637,-82.34772 -15.253387,-17.072127 -43.073237,-34.140824 -76.345877,-61.881746 -5.2915,-4.344385 -21.1763,-2.134445 -15.80587,10.826646 0,0.0034 14.14842,14.151852 26.63595,23.238686 z m 8.13972,19.364425 c 22.91955,0 41.72805,16.910839 41.72805,37.462599 0,20.70275 -18.8085,37.45917 -41.72805,37.45917 -23.0774,0 -41.72806,-16.75642 -41.72806,-37.45917 0,-20.55176 18.65066,-37.462599 41.72806,-37.462599 z"
         id="path2288" />
      <path
         style="clip-rule:evenodd;fill:#37699f;fill-rule:evenodd;stroke-width:3.43158"
         inkscape:connector-curvature="0"
         d="m -142.37368,106.86683 c 14.2548,0 25.88101,10.95018 25.88101,24.37797 0,13.42779 -11.62621,24.37797 -25.88101,24.37797 -14.25479,0 -25.881,-10.95018 -25.881,-24.37797 0,-13.42779 11.62621,-24.37797 25.881,-24.37797 z"
         id="path2290" />
    </g>
    <g
       id="g2349"
       transform="matrix(0.05275576,0,0,0.05275576,-556.33508,51.933)">
      <path
         style="fill:#53c1de;stroke-width:0.970771"
         d="m 168.52734,13.330078 c -10.97673,-0.07786 -25.04697,6.875112 -39.22265,19.210938 a 146.7184,146.7184 0 0 0 -5.46094,5.013672 133.55183,133.55183 0 0 0 -3.63477,-3.357422 C 100.40041,16.608843 80.545081,9.1984007 68.623047,16.099609 57.191251,22.717353 53.805077,42.36741 58.617188,66.957031 a 146.499,146.499 0 0 0 1.621093,7.265625 c -2.80941,0.797974 -5.5233,1.647976 -8.11914,2.552735 -23.222776,8.096227 -38.052735,20.785556 -38.052735,33.947269 0,13.59467 15.919712,27.23096 40.109375,35.49804 a 124.68578,124.68578 0 0 0 5.931641,1.85352 143.49253,143.49253 0 0 0 -1.722656,7.83203 c -4.587863,24.16248 -1.005218,43.34686 10.396484,49.92383 11.776419,6.79054 31.54061,-0.18826 50.78711,-17.01172 1.5212,-1.32996 3.04916,-2.74027 4.57812,-4.21875 a 144.00412,144.00412 0 0 0 5.92969,5.41016 c 18.64268,16.04198 37.05332,22.52022 48.44531,15.92578 11.76574,-6.81093 15.58953,-27.42207 10.625,-52.49805 -0.3786,-1.91533 -0.82131,-3.87126 -1.3164,-5.86328 1.3882,-0.40967 2.75109,-0.83271 4.08008,-1.27344 25.14684,-8.33115 41.50586,-21.80192 41.50586,-35.57812 0,-13.20928 -15.30736,-25.983231 -38.99805,-34.138676 a 146.93973,146.93973 0 0 0 -7.0625,-2.224609 133.48097,133.48097 0 0 0 1.0918,-4.816406 c 5.34506,-25.946759 1.85067,-46.849646 -10.08399,-53.730469 -2.86062,-1.649825 -6.17703,-2.456469 -9.83594,-2.482422 z m -0.47851,9.34961 c 2.22191,-0.03255 4.12423,0.379977 5.63281,1.25 7.34485,4.236443 10.20294,21.320181 5.58789,43.722656 a 123.79753,123.79753 0 0 1 -0.98633,4.359375 c -9.1,-2.099777 -18.9836,-3.662042 -29.33008,-4.632813 -6.02751,-8.582583 -12.27177,-16.386002 -18.54101,-23.140625 a 137.77177,137.77177 0 0 1 5.04492,-4.626953 c 12.65187,-11.010663 24.65639,-16.815392 32.5918,-16.93164 z m -88.722658,0.208984 c 8.471826,0.159613 21.298408,6.450574 34.660158,18.314453 1.09309,0.970771 2.19113,1.987718 3.29101,3.039063 -6.37213,6.842962 -12.66968,14.632686 -18.685543,23.123046 -10.31638,0.956209 -20.192837,2.493719 -29.271485,4.550782 A 137.38832,137.38832 0 0 1 67.8125,65.158203 c -4.12232,-21.06768 -1.38349,-36.961414 5.505859,-40.949219 1.605412,-0.92927 3.635702,-1.365004 6.007813,-1.320312 z M 123.8457,50.939453 c 4.32187,4.682027 8.65041,9.909818 12.90821,15.582031 a 275.93671,275.93671 0 0 0 -25.92579,-0.0059 c 4.26169,-5.619791 8.62776,-10.839782 13.01758,-15.576172 z m -0.10351,24.644531 c 6.79151,0 13.48813,0.260778 20.00976,0.757813 a 282.20692,282.20692 0 0 1 10.57032,16.873047 307.16931,307.16931 0 0 1 9.45507,17.601566 282.30594,282.30594 0 0 1 -9.42382,17.7539 h -0.002 a 307.22756,307.22756 0 0 1 -10.52344,16.98047 c -6.50804,0.465 -13.23229,0.70313 -20.08593,0.70313 -6.82549,0 -13.46686,-0.21244 -19.86133,-0.62696 a 265.79507,265.79507 0 0 1 -10.720704,-17.0039 263.40309,263.40309 0 0 1 -9.357422,-17.67383 265.85914,265.85914 0 0 1 9.330078,-17.681642 v -0.002 a 263.32349,263.32349 0 0 1 10.636758,-16.92964 c 6.52358,-0.493152 13.21124,-0.751954 19.97266,-0.751954 z m -32.003909,1.949219 a 275.49501,275.49501 0 0 0 -6.724609,11.052735 276.90263,276.90263 0 0 0 -6.191406,11.341796 c -2.728837,-6.472128 -5.06411,-12.83549 -6.970704,-18.980468 6.258559,-1.400822 12.933089,-2.545223 19.886719,-3.414063 z m 64.023439,0.01758 c 6.99926,0.883402 13.70358,2.058383 20,3.496094 -1.89009,6.05858 -4.24507,12.394216 -7.01953,18.888672 a 326.58667,326.58667 0 0 0 -6.31055,-11.414063 298.00912,298.00912 0 0 0 -6.66992,-10.970703 z m -93.007814,5.697266 c 2.74534,8.928178 6.346237,18.263351 10.691406,27.703121 -4.401474,9.58054 -8.053639,19.06464 -10.824218,28.09766 a 115.4324,115.4324 0 0 1 -5.414063,-1.69531 c -10.695951,-3.65593 -19.529287,-8.40593 -25.583984,-13.58985 -5.440199,-4.6597 -8.1875,-9.28704 -8.1875,-13.04101 0,-7.98653 11.908534,-18.173151 31.769531,-25.097658 a 135.20506,135.20506 0 0 1 7.548828,-2.376953 z m 122.091794,0.13867 c 2.24345,0.650416 4.42268,1.335369 6.52149,2.058593 20.29881,6.986637 32.67969,17.317028 32.67969,25.277348 0,8.47968 -13.3727,19.48921 -35.08399,26.68359 -1.1989,0.39705 -2.42936,0.78054 -3.68359,1.15234 -2.77641,-8.78838 -6.5254,-18.13474 -11.10938,-27.78906 4.37527,-9.42618 7.97704,-18.650729 10.67578,-27.382811 z m -16.01562,38.244141 c 2.93173,6.68278 5.40429,13.14703 7.36719,19.29492 -6.36049,1.4513 -13.22774,2.62041 -20.46289,3.48828 a 327.67102,327.67102 0 0 0 6.73437,-11.16211 297.66935,297.66935 0 0 0 6.36133,-11.62109 z m -89.998049,0.33594 a 275.20766,275.20766 0 0 0 6.21875,11.34961 276.93175,276.93175 0 0 0 6.886719,11.26562 c -7.183703,-0.80186 -13.958227,-1.88801 -20.214844,-3.25 1.936688,-6.2537 4.322293,-12.75428 7.109375,-19.36523 z m 99.933589,27.98437 c 0.44656,1.80564 0.84482,3.57576 1.1875,5.30664 2.19492,11.08815 2.50891,21.11414 1.05469,28.95117 -1.30665,7.04197 -3.93344,11.73486 -7.18164,13.61524 -6.91286,4.00152 -21.69667,-1.19904 -37.63867,-14.91797 -1.82796,-1.57265 -3.66922,-3.25279 -5.51562,-5.0293 6.18089,-6.76044 12.35823,-14.61847 18.38671,-23.3457 10.6047,-0.94068 20.62159,-2.4803 29.70703,-4.58008 z m -109.572261,0.41992 c 8.984483,1.98717 18.928655,3.41726 29.558594,4.2793 6.068287,8.53987 12.424937,16.38965 18.830077,23.26367 a 115.38871,115.38871 0 0 1 -4.17969,3.84766 c -8.51074,7.43999 -17.038977,12.71799 -24.554684,15.37305 -6.753651,2.38518 -12.133654,2.45268 -15.384765,0.57812 -6.919654,-3.98987 -9.793978,-19.39574 -5.871094,-40.05859 a 134.45853,134.45853 0 0 1 1.601562,-7.28321 z m 67.789061,4.95899 c -4.27139,5.80521 -8.5842,11.11316 -12.87695,15.83984 -4.44128,-4.79269 -8.87054,-10.09163 -13.19727,-15.79297 4.19956,0.16503 8.48202,0.24805 12.83399,0.24805 4.47137,0 8.89021,-0.10077 13.24023,-0.29492 z"
         transform="matrix(1.0301094,0,0,1.0301094,0.75398169,0.78456766)"
         id="path2331" />
      <path
         id="path2335"
         d="m 128.221,94.665 c 11.144,0 20.177,9.034 20.177,20.177 0,11.144 -9.033,20.178 -20.177,20.178 -11.143,0 -20.177,-9.034 -20.177,-20.178 0,-11.143 9.034,-20.177 20.177,-20.177"
         inkscape:connector-curvature="0"
         style="fill:#53c1de" />
    </g>
    <g
       id="g2384"
       transform="matrix(0.00419698,0,0,0.00419698,-541.48546,52.816335)">
      <path
         id="path2361"
         d="M 381,1618 0,1237 1237.1,0 H 1999 m 0,1141.5 h -761.9 l -285.4,285.4 381,381"
         inkscape:connector-curvature="0"
         style="fill:#42a5f5;fill-opacity:0.8" />
      <path
         id="path2363"
         d="m 951.7,2188.8 285.4,285.4 H 1999 l -666.3,-666.3"
         inkscape:connector-curvature="0"
         style="fill:#0d47a1" />
      <path
         id="path2365"
         d="M 571.6,1808.1 952,1427.6 1332.4,1808 952,2188.5 Z"
         inkscape:connector-curvature="0"
         style="fill:#42a5f5" />
      <path
         id="path2367"
         d="m 952,2188.5 380.4,-380.4 53.1,53.1 -380.4,380.4 z"
         inkscape:connector-curvature="0"
         style="fill:url(#a)" />
      <path
         id="path2369"
         d="M 951.7,2188.8 1517,1993.5 1332.7,1807.8"
         inkscape:connector-curvature="0"
         style="fill:url(#b)" />
    </g>
    <g
       id="g2430"
       transform="matrix(0.11549944,0,0,0.11549944,-531.14411,52.09245)">
      <path
         id="path2407"
         d="m 90.133,65.7 c 0,0 -0.133,-0.818 -0.211,-0.81 l -14.843,1.43 a 2.412,2.412 0 0 0 -2.181,2.24 l -0.408,5.844 -11.483,0.82 -0.78,-5.297 A 2.433,2.433 0 0 0 57.833,67.86 H 42.167 c -1.19,0 -2.22,0.889 -2.393,2.067 L 38.993,75.223 27.51,74.404 27.102,68.56 A 2.413,2.413 0 0 0 24.921,66.32 L 10.07,64.89 C 9.993,64.883 9.937,65.702 9.86,65.702 l -0.02,3.212 12.577,2.028 0.411,5.896 a 2.431,2.431 0 0 0 2.241,2.245 l 15.815,1.128 a 2.431,2.431 0 0 0 2.568,-2.06 l 0.803,-5.45 h 11.488 l 0.804,5.45 a 2.432,2.432 0 0 0 2.565,2.06 l 15.817,-1.128 a 2.432,2.432 0 0 0 2.24,-2.245 l 0.412,-5.896 12.572,-2.037 z"
         inkscape:connector-curvature="0"
         style="fill:#ffffff;stroke-width:0.32" />
      <path
         id="path2409"
         d="M 40.764,4.2 A 2.574,2.574 0 0 0 40.098,4.264 C 35.766,5.227 31.41,6.582 27.268,8.666 a 2.773,2.773 0 0 0 -1.525,2.55 c 0.074,2.886 0.326,5.694 0.644,8.529 -1.077,0.645 -2.154,1.232 -3.342,2.185 -0.845,0.65 -1.788,1.473 -2.71,2.236 -2.15,-1.349 -4.32,-2.692 -6.62,-3.85 a 2.773,2.773 0 0 0 -3.279,0.59 C 7.31,24.272 4.338,27.954 1.883,32.13 a 2.773,2.773 0 0 0 0.034,2.863 c 1.623,2.625 3.351,5.08 5.171,7.459 v 29.805 c 0,8.223 5.472,14.496 13.3,18.238 7.826,3.742 18.184,5.452 29.575,5.492 h 0.075 c 11.39,-0.04 21.749,-1.75 29.574,-5.492 7.825,-3.742 13.295,-10.016 13.295,-18.238 l 0.004,-29.031 c 1.848,-2.712 3.382,-5.334 5.173,-8.23 0.54,-0.875 0.553,-1.976 0.034,-2.862 -2.454,-4.177 -5.429,-7.86 -8.555,-11.225 a 2.773,2.773 0 0 0 -3.277,-0.59 c -2.299,1.157 -4.47,2.502 -6.62,3.852 -0.922,-0.764 -1.862,-1.588 -2.71,-2.239 -0.004,0 -0.007,0 -0.01,-0.01 -1.186,-0.95 -2.259,-1.537 -3.332,-2.18 0.317,-2.833 0.57,-5.642 0.644,-8.529 A 2.773,2.773 0 0 0 72.733,8.665 C 68.59,6.58 64.235,5.225 59.9,4.262 a 2.773,2.773 0 0 0 -2.985,1.29 c -1.4,2.353 -2.601,4.855 -3.763,7.325 -1.035,-0.094 -2.086,-0.238 -3.088,-0.25 h -0.127 c -1.004,0.012 -2.056,0.156 -3.092,0.25 C 45.73,10.505 44.568,8.113 43.23,5.842 A 2.773,2.773 0 0 0 40.763,4.196 Z"
         inkscape:connector-curvature="0"
         style="fill:#ffffff" />
      <path
         id="path2411"
         d="m 40.699,6.9 c -4.178,0.929 -8.31,2.222 -12.185,4.172 0.089,3.421 0.31,6.7 0.758,10.029 -1.505,0.964 -3.086,1.791 -4.491,2.92 -1.428,1.098 -2.887,2.15 -4.18,3.434 a 80.027,80.027 0 0 0 -8.134,-4.731 c -3.036,3.267 -5.874,6.794 -8.193,10.74 1.744,2.822 3.566,5.468 5.532,7.978 h 0.055 v 24.22 c 0.045,0 0.089,0 0.133,0.01 l 14.848,1.432 a 1.599,1.599 0 0 1 1.441,1.48 l 0.458,6.555 12.952,0.924 0.893,-6.05 a 1.599,1.599 0 0 1 1.581,-1.365 h 15.665 c 0.793,0 1.466,0.581 1.582,1.365 l 0.892,6.05 12.953,-0.924 0.458,-6.555 a 1.6,1.6 0 0 1 1.441,-1.48 L 90,65.672 c 0.044,0 0.088,-0.01 0.132,-0.01 V 63.73 h 0.006 V 41.445 h 0.055 c 1.967,-2.511 3.787,-5.157 5.533,-7.979 -2.318,-3.946 -5.159,-7.473 -8.195,-10.74 a 80.158,80.158 0 0 0 -8.134,4.732 c -1.292,-1.285 -2.748,-2.336 -4.178,-3.435 -1.405,-1.128 -2.989,-1.956 -4.49,-2.92 0.447,-3.33 0.668,-6.607 0.757,-10.029 -3.875,-1.95 -8.007,-3.243 -12.187,-4.171 -1.669,2.804 -3.195,5.841 -4.524,8.81 -1.576,-0.263 -3.16,-0.36 -4.745,-0.38 h -0.061 c -1.588,0.02 -3.17,0.117 -4.747,0.38 -1.328,-2.969 -2.853,-6.006 -4.525,-8.81 z M 9.837,68.866 c 0.006,1.435 0.024,3.007 0.024,3.32 0,14.101 17.888,20.878 40.112,20.956 h 0.055 c 22.224,-0.078 40.106,-6.855 40.106,-20.956 0,-0.319 0.02,-1.884 0.026,-3.32 l -13.346,1.287 -0.46,6.59 a 1.6,1.6 0 0 1 -1.482,1.483 l -15.816,1.128 h -0.115 a 1.599,1.599 0 0 1 -1.58,-1.366 l -0.907,-6.15 H 43.549 l -0.907,6.15 A 1.598,1.598 0 0 1 40.946,79.35 L 25.13,78.222 a 1.599,1.599 0 0 1 -1.48,-1.483 l -0.46,-6.59 z"
         inkscape:connector-curvature="0"
         style="fill:#478cbf" />
      <path
         id="path2413"
         d="m 37.9,51.3 a 8.948,8.948 0 0 1 -17.895,0 c 0,-4.94 4.007,-8.944 8.947,-8.944 4.942,0 8.948,4.003 8.948,8.944 M 50,61.1 c -1.59,0 -2.88,-1.172 -2.88,-2.618 v -8.237 c 0,-1.444 1.29,-2.618 2.88,-2.618 1.59,0 2.883,1.174 2.883,2.618 v 8.237 c 0,1.446 -1.292,2.618 -2.883,2.618 m 12.101,-9.8 a 8.947,8.947 0 0 0 8.949,8.949 8.947,8.947 0 0 0 8.946,-8.949 c 0,-4.94 -4.007,-8.944 -8.946,-8.944 -4.943,0 -8.949,4.003 -8.949,8.944"
         inkscape:connector-curvature="0"
         style="fill:#ffffff;stroke-width:0.32" />
      <path
         id="path2415"
         d="m 29.807,45.9 a 5.9385,5.9385 0 1 0 0,11.877 5.94,5.94 0 0 0 0,-11.877 z m 40.383,0 a 5.938,5.938 0 0 0 -5.936,5.94 5.936,5.936 0 0 0 5.936,5.937 5.939,5.939 0 0 0 0,-11.877 z"
         inkscape:connector-curvature="0"
         style="fill:#414042" />
    </g>
  </g>
</svg>
